<svg xmlns="http://www.w3.org/2000/svg" width="157.540" height="157.560" viewBox="0 0 157.540 157.560" fill="none">
  <path d="M 78.77 43.54 C 65.61 43.54 54.95 54.2 54.95 67.36 C 54.95 71.45 55.98 75.3 57.8 78.66 C 54.99 87.28 57.75 96.59 64.49 102.33 C 59.97 104.05 55.85 106.56 52.29 109.68 C 57.59 96.35 47.82 81.57 33.21 81.57 C 25.18 81.57 18.23 86.18 14.86 92.9 C 13.41 89.28 12.26 85.5 11.44 81.6 C 18.65 80.86 24.28 74.77 24.28 67.35 C 24.28 59.93 18.65 53.85 11.44 53.1 C 13.22 44.66 16.54 36.79 21.1 29.8 C 26.73 34.38 35.01 34.04 40.24 28.8 C 45.48 23.56 45.81 15.28 41.23 9.66 C 48.22 5.1 56.09 1.78 64.53 0 C 65.27 7.21 71.36 12.84 78.78 12.84 C 86.2 12.84 92.29 7.21 93.03 0 C 101.47 1.78 109.34 5.1 116.33 9.66 C 111.75 15.29 112.09 23.56 117.33 28.8 C 122.57 34.04 130.85 34.37 136.47 29.8 C 141.03 36.79 144.35 44.66 146.13 53.1 C 138.92 53.84 133.29 59.93 133.29 67.35 C 133.29 74.77 138.92 80.85 146.13 81.6 C 145.32 85.49 144.17 89.25 142.73 92.86 C 139.35 86.16 132.41 81.57 124.4 81.57 C 109.79 81.57 100.02 96.35 105.32 109.67 C 101.76 106.55 97.63 104.04 93.12 102.32 C 99.87 96.58 102.63 87.24 99.8 78.62 C 101.6 75.27 102.62 71.44 102.62 67.36 C 102.62 54.2 91.96 43.54 78.8 43.54 L 78.77 43.54 Z M 124.37 85.5 C 115.21 85.5 107.78 92.92 107.78 102.09 C 107.78 111.26 115.2 118.68 124.37 118.68 C 133.54 118.68 140.96 111.26 140.96 102.09 C 140.96 92.92 133.54 85.5 124.37 85.5 Z M 33.2 85.5 C 24.04 85.5 16.61 92.92 16.61 102.09 C 16.61 111.26 24.03 118.68 33.2 118.68 C 42.37 118.68 49.79 111.26 49.79 102.09 C 49.79 92.92 42.37 85.5 33.2 85.5 Z M 157.51 154.44 L 157.54 151.85 C 157.54 136.94 147.69 124.31 134.14 120.14 C 128.06 123.44 120.67 123.44 114.59 120.14 C 101.04 124.32 91.19 136.93 91.19 151.85 L 91.16 154.44 C 91.16 156.16 92.56 157.56 94.28 157.56 L 154.4 157.56 C 156.12 157.56 157.52 156.16 157.52 154.44 L 157.51 154.44 Z M 66.35 154.44 L 66.38 151.85 C 66.38 136.94 56.53 124.31 42.98 120.14 C 36.9 123.44 29.51 123.44 23.43 120.14 C 9.88 124.32 0.03 136.93 0.03 151.85 L 0 154.44 C 0 156.16 1.4 157.56 3.12 157.56 L 63.24 157.56 C 64.96 157.56 66.36 156.16 66.36 154.44 L 66.35 154.44 Z M 78.79 67.37 C 68.77 67.37 60.66 75.49 60.66 85.5 C 60.66 95.51 68.78 103.63 78.79 103.63 C 88.8 103.63 96.92 95.51 96.92 85.5 C 96.92 75.49 88.8 67.37 78.79 67.37 Z M 108.08 118.51 C 103.42 112.15 96.74 107.36 88.98 105.09 C 85.93 106.68 82.47 107.58 78.8 107.58 C 75.13 107.58 71.66 106.68 68.62 105.09 C 60.86 107.35 54.18 112.15 49.52 118.51 C 60.21 123.75 68.02 133.97 69.9 146.15 L 87.7 146.15 C 89.58 133.97 97.39 123.74 108.08 118.51 Z" fill="currentColor" fill-rule="evenodd"></path>
</svg>